<?xml version="1.0" standalone="no"?>
<!DOCTYPE svg PUBLIC "-//W3C//DTD SVG 20010904//EN"
 "http://www.w3.org/TR/2001/REC-SVG-20010904/DTD/svg10.dtd">
<svg version="1.0" xmlns="http://www.w3.org/2000/svg"
 width="500.000000pt" height="500.000000pt" viewBox="0 0 500.000000 500.000000"
 preserveAspectRatio="xMidYMid meet">

<g transform="translate(0.000000,500.000000) scale(0.100000,-0.100000)"
fill="#000000" stroke="none">
<path d="M2260 4990 c-466 -49 -894 -216 -1265 -495 -154 -116 -151 -112 -121
-166 37 -68 46 -115 60 -322 15 -223 25 -256 103 -329 54 -49 124 -89 212
-119 30 -11 56 -19 58 -19 2 0 -21 33 -52 72 -105 134 -148 251 -125 338 l12
44 41 -79 c60 -116 136 -188 267 -256 223 -114 414 -290 501 -461 40 -78 49
-163 46 -408 -3 -254 1 -266 95 -282 13 -2 -41 -110 -252 -503 -188 -350 -273
-518 -284 -562 -30 -119 -15 -247 42 -363 34 -68 130 -166 203 -208 54 -30 58
-31 145 -25 49 3 95 9 102 12 8 5 -32 32 -105 71 -142 77 -202 130 -245 218
-41 84 -51 207 -21 289 10 28 254 491 543 1030 487 908 529 982 585 1039 44
44 75 67 118 82 110 42 216 38 315 -9 l42 -21 98 56 c53 31 207 120 342 199
l245 142 6 39 c12 76 86 101 140 47 40 -40 39 -83 -2 -122 l-31 -29 16 -303
c9 -166 19 -344 23 -395 l6 -93 53 -35 c130 -86 197 -252 165 -404 -8 -40
-111 -240 -361 -705 -192 -357 -352 -658 -355 -667 -9 -23 113 30 375 161 301
151 585 322 841 508 129 93 117 72 141 238 20 136 16 513 -6 655 -85 555 -322
1027 -710 1416 -386 385 -864 627 -1406 709 -124 19 -477 28 -600 15z m44
-2024 l29 -36 -22 -47 c-12 -27 -31 -59 -41 -73 l-20 -25 0 41 c0 36 -32 164
-56 229 -10 26 68 -37 110 -89z"/>
<path d="M665 4198 c-338 -363 -563 -836 -642 -1348 -22 -145 -25 -530 -4
-665 42 -283 120 -544 231 -772 69 -142 70 -143 149 -206 110 -86 224 -152
360 -207 109 -44 289 -100 320 -100 8 0 -5 17 -30 37 -176 146 -299 337 -349
545 -24 97 -36 253 -25 323 l7 49 46 -90 c26 -49 64 -113 85 -141 87 -119 222
-210 325 -220 l47 -5 -35 28 c-19 15 -73 66 -120 114 -135 137 -207 284 -231
465 -13 107 -1 232 58 570 46 267 48 370 10 468 -14 37 -23 67 -19 67 20 0
101 -61 139 -103 50 -57 104 -166 133 -267 33 -113 30 -108 45 -80 36 69 59
166 59 250 -1 159 -34 209 -245 376 -238 188 -263 232 -263 464 0 124 4 161
28 260 28 117 32 238 9 261 -7 7 -37 -18 -88 -73z"/>
<path d="M3661 3732 c-178 -104 -323 -192 -323 -198 -1 -9 341 -199 346 -193
13 15 307 571 304 574 -2 3 -149 -80 -327 -183z"/>
<path d="M4029 3895 c-48 -76 -309 -580 -303 -582 5 -2 86 -46 179 -97 94 -52
171 -93 173 -92 2 3 -35 697 -41 756 -1 14 -5 21 -8 15z"/>
<path d="M4820 1899 c-160 -125 -512 -359 -715 -474 -93 -53 -259 -142 -370
-197 l-200 -100 -144 -270 c-125 -233 -151 -275 -198 -318 -88 -81 -227 -118
-340 -91 -28 7 -156 70 -287 140 l-236 128 -58 -13 c-446 -104 -1047 -125
-1384 -48 -38 9 -73 14 -78 12 -18 -6 167 -155 310 -250 304 -203 651 -336
1030 -395 161 -24 538 -25 700 0 554 85 1027 323 1416 711 282 283 482 605
603 972 50 152 84 285 73 283 -4 0 -59 -41 -122 -90z"/>
</g>
</svg>
